HIERARCHY
ROOT Hips
{
	OFFSET -3.958830 18.904000 13.208200
	CHANNELS 6 Xposition Yposition Zposition Zrotation Yrotation Xrotation 
	JOINT LHipJoint
	{
		OFFSET 0.000000 0.000000 0.000000
		CHANNELS 3 Zrotation Yrotation Xrotation
		JOINT LeftUpLeg
		{
			OFFSET 1.800000 -1.400000 0.085000
			CHANNELS 3 Zrotation Yrotation Xrotation
			JOINT LeftLeg
			{
				OFFSET 2.215000 -6.000000 0.000000
				CHANNELS 3 Zrotation Yrotation Xrotation
				JOINT LeftFoot
				{
					OFFSET 2.500000 -6.900000 0.000000
					CHANNELS 3 Zrotation Yrotation Xrotation
					JOINT LeftToeBase
					{
						OFFSET 0.200000 -0.500000 1.950000
						CHANNELS 3 Zrotation Yrotation Xrotation
						End Site
						{
							OFFSET 0.000000 0.000000 0.000000
						}
					}
				}
			}
		}
	}
	JOINT RHipJoint
	{
		OFFSET 0.000000 0.000000 0.000000
		CHANNELS 3 Zrotation Yrotation Xrotation
		JOINT RightUpLeg
		{
			OFFSET -1.800000 -1.400000 0.085000
			CHANNELS 3 Zrotation Yrotation Xrotation
			JOINT RightLeg
			{
				OFFSET -2.215000 -6.000000 0.000000
				CHANNELS 3 Zrotation Yrotation Xrotation
				JOINT RightFoot
				{
					OFFSET -2.500000 -6.900000 0.000000
					CHANNELS 3 Zrotation Yrotation Xrotation
					JOINT RightToeBase
					{
						OFFSET -0.200000 -0.500000 1.950000
						CHANNELS 3 Zrotation Yrotation Xrotation
						End Site
						{
							OFFSET 0.000000 0.000000 0.000000
						}
					}
				}
			}
		}
	}
	JOINT LowerBack
	{
		OFFSET 0.000000 0.000000 0.000000
		CHANNELS 3 Zrotation Yrotation Xrotation
		JOINT Spine
		{
			OFFSET -0.087000 1.940000 -0.288900
			CHANNELS 3 Zrotation Yrotation Xrotation
			JOINT Spine1
			{
				OFFSET 0.000000 1.950000 0.060000
				CHANNELS 3 Zrotation Yrotation Xrotation
				JOINT Neck
				{
					OFFSET 0.000000 0.000000 0.000000
					CHANNELS 3 Zrotation Yrotation Xrotation
					JOINT Neck1
					{
						OFFSET 0.000000 1.600000 0.340000
						CHANNELS 3 Zrotation Yrotation Xrotation
						JOINT Head
						{
							OFFSET 0.000000 1.667000 -0.240000
							CHANNELS 3 Zrotation Yrotation Xrotation
							End Site
							{
								OFFSET 0.000000 0.000000 0.000000
							}
						}
					}
				}
				JOINT LeftShoulder
				{
					OFFSET 0.000000 0.000000 0.000000
					CHANNELS 3 Zrotation Yrotation Xrotation
					JOINT LeftArm
					{
						OFFSET 2.700000 1.550000 -0.730000
						CHANNELS 3 Zrotation Yrotation Xrotation
						JOINT LeftForeArm
						{
							OFFSET 5.450000 0.000000 0.000000
							CHANNELS 3 Zrotation Yrotation Xrotation
							JOINT LeftHand
							{
								OFFSET 3.450000 0.000000 0.000000
								CHANNELS 3 Zrotation Yrotation Xrotation
								JOINT LeftHandIndex1
								{
									OFFSET 0.750000 0.000000 0.000000
									CHANNELS 3 Zrotation Yrotation Xrotation
									End Site
									{
										OFFSET 0.000000 0.000000 0.000000
									}
								}
							}
						}
					}
				}
				JOINT RightShoulder
				{
					OFFSET 0.000000 0.000000 0.000000
					CHANNELS 3 Zrotation Yrotation Xrotation
					JOINT RightArm
					{
						OFFSET -2.700000 1.550000 -0.730000
						CHANNELS 3 Zrotation Yrotation Xrotation
						JOINT RightForeArm
						{
							OFFSET -5.450000 0.000000 0.000000
							CHANNELS 3 Zrotation Yrotation Xrotation
							JOINT RightHand
							{
								OFFSET -3.450000 0.000000 0.000000
								CHANNELS 3 Zrotation Yrotation Xrotation
								JOINT RightHandIndex1
								{
									OFFSET -0.750000 0.000000 0.000000
									CHANNELS 3 Zrotation Yrotation Xrotation
									End Site
									{
										OFFSET 0.000000 0.000000 0.000000
									}
								}
							}
						}
					}
				}
			}
		}
	}
}
MOTION
Frames: 12
Frame Time: 0.016667
-0.407410 16.773500 -3.294300 4.964721 -10.776764 -11.437027 -15.016713 11.538493 5.148212 39.103584 0.721687 -18.269405 -22.800402 19.757990 33.509350 1.014585 10.468224 0.813365 0.566890 0.433620 0.292360 18.690635 -10.323150 1.872378 -12.691788 4.260440 -15.620871 8.007984 -12.634808 45.798631 -1.178019 -7.447389 1.839236 0.050440 -0.169960 0.116810 -4.524588 -0.390716 -8.512744 24.329300 -16.018810 41.204799 -21.759280 -7.017316 2.006474 8.502461 -11.816794 -8.868940 -26.216168 11.918301 37.391066 -8.356210 1.175200 -19.590010 -22.797509 2.396454 -1.823427 -24.973568 8.009106 -10.471899 -1.244277 -41.951834 -0.776312 -3.074657 3.375830 0.493620 -0.260760 0.221890 0.213700 4.763797 3.713283 8.170789 21.459494 -6.367852 -8.156894 -146.762794 37.936980 -114.051644 2.143209 -2.056376 0.150640 0.101380 -0.176810 -0.067380 
-0.401240 16.773820 -3.278660 4.511626 -10.740622 -11.004543 -14.990232 11.743980 4.888783 38.568673 1.014474 -16.543226 -21.030361 17.664188 29.939448 0.858070 9.781335 1.018975 0.584890 0.449080 0.295230 18.679170 -10.348451 1.950215 -12.440073 4.394858 -15.598096 8.585192 -12.726850 45.215266 -1.182257 -7.403050 1.854414 0.051480 -0.175070 0.136020 -4.527358 -0.544495 -8.404962 25.567807 -16.490652 39.879977 -22.097597 -7.488920 2.222430 8.833323 -12.089671 -9.165846 -27.213408 12.307538 37.280085 -8.661340 1.297570 -19.545500 -22.675497 2.181562 -1.604071 -25.920888 7.589614 -9.873478 0.709557 -37.204870 -1.201058 -3.097288 3.327137 0.497030 -0.262740 0.233470 0.223740 4.030329 4.077231 8.257815 20.672473 -6.091801 -8.192107 -144.676102 39.380166 -111.714149 2.148630 -2.053307 0.168260 0.087540 -0.184150 -0.060080 
-0.382560 16.770710 -3.238910 3.355301 -10.429652 -9.546370 -14.926322 12.087183 4.390964 37.289448 1.467940 -14.789245 -16.284098 14.070145 24.346047 0.571072 8.470617 1.458716 0.568070 0.434540 0.280840 18.679078 -10.403476 2.135312 -11.825589 4.722951 -16.302040 9.589453 -13.066214 44.638179 -1.178408 -7.400129 1.871784 0.052770 -0.142710 0.132030 -4.583222 -0.730113 -8.209573 28.866009 -17.084489 35.975949 -23.081460 -7.912849 2.736618 9.480068 -12.020937 -9.517558 -27.369463 12.336965 37.743125 -9.854440 2.120270 -17.552000 -23.153394 1.456863 -1.227768 -26.447347 6.927536 -8.371533 2.932297 -28.765412 -1.357481 -3.178261 3.210951 0.482670 -0.229970 0.220720 0.242920 3.164693 4.729628 8.496337 19.494467 -5.808364 -8.145189 -140.230890 41.818347 -106.334805 2.154733 -2.007800 0.148770 0.104140 -0.187400 -0.055360 
-0.369270 16.775990 -3.212140 2.568163 -10.360896 -8.521582 -14.843240 12.536636 3.774391 35.188654 1.608117 -12.318332 -10.289002 10.409677 17.991523 0.315377 6.965524 2.019713 0.553580 0.417550 0.280450 18.664246 -10.518330 2.359548 -11.220300 5.210833 -17.397732 9.919286 -13.231627 44.892660 -1.188593 -7.438198 1.868124 0.058020 -0.101860 0.121350 -4.622819 -0.950569 -7.965533 31.239988 -17.632190 33.020801 -23.695850 -8.544957 3.165963 9.868492 -12.186184 -9.709141 -27.756549 12.759794 37.408978 -10.386660 3.043270 -16.775280 -23.770736 0.749909 -0.698441 -27.271099 6.518602 -6.802827 5.752542 -20.377865 -1.478253 -3.283932 3.073822 0.483440 -0.204540 0.208430 0.254430 2.979564 5.450269 8.334642 17.690496 -4.243833 -8.009250 -134.249163 43.654856 -98.167073 2.152616 -1.883312 0.115970 0.146700 -0.182740 -0.057730 
-0.342180 16.759500 -3.172900 2.025551 -10.420123 -7.087709 -14.762317 12.772514 3.308419 33.086042 1.308720 -9.785275 -4.748825 7.549289 11.582224 0.150081 5.809828 2.482621 0.549130 0.419710 0.266770 18.679134 -10.590945 2.564738 -10.896946 5.793929 -19.405758 9.779190 -13.418351 45.904917 -1.192181 -7.590077 1.815706 0.083670 -0.050480 0.133480 -4.717082 -0.982660 -7.744721 33.622901 -17.876296 28.862195 -24.140040 -9.261606 4.284135 9.823826 -12.620011 -9.559860 -28.146832 13.467837 36.246745 -10.456900 4.144420 -15.514760 -23.979520 0.367792 -0.060075 -28.435888 6.166969 -5.054263 6.789120 -12.044901 -1.168134 -3.432051 2.991763 0.456140 -0.148860 0.175100 0.257870 3.239571 5.922633 7.634273 15.114751 -0.465961 -7.293652 -126.593554 45.107136 -87.538697 2.110349 -1.712578 0.096980 0.161180 -0.163530 -0.059500 
-0.314150 16.746520 -3.150300 1.100613 -10.595397 -5.964467 -14.795757 12.878221 3.243773 32.496501 0.970421 -7.992839 -1.236519 6.161833 7.161488 0.137011 5.434314 2.667299 0.553050 0.417190 0.270340 18.637141 -10.425058 2.654622 -9.898457 6.362803 -20.421565 9.665888 -13.394460 46.385227 -1.196734 -7.618866 1.803009 0.093160 -0.025350 0.148830 -4.599538 -1.350019 -7.706224 35.149353 -18.135388 26.792856 -23.348179 -9.641022 4.198964 10.153046 -13.221970 -9.522633 -28.904824 14.225125 35.231667 -10.517970 4.975190 -14.795260 -23.926845 0.792824 0.109929 -31.235990 6.442344 -4.511186 8.755129 -7.554336 -0.988275 -3.527715 2.963509 0.441980 -0.123520 0.159470 0.259320 2.530307 6.409388 7.013235 13.725837 3.832439 -6.981739 -119.924884 43.925509 -76.119140 2.067430 -1.612430 0.092890 0.158870 -0.157410 -0.060940 
-0.295250 16.742750 -3.143150 0.656375 -10.191172 -5.492965 -14.846562 12.934759 3.311736 32.377025 0.734832 -6.943139 0.120739 5.690875 4.897432 0.127549 5.421466 2.698454 0.538370 0.389700 0.268160 18.587917 -10.277248 2.645674 -9.663917 6.423117 -20.473320 10.040678 -13.467263 45.962548 -1.180725 -7.577329 1.815708 0.092750 -0.010270 0.150540 -4.459321 -1.713054 -7.719074 35.761946 -18.269039 25.380351 -22.348181 -9.855132 4.816543 10.524328 -13.357790 -9.955616 -29.006757 14.355686 35.178497 -11.173400 5.466930 -14.589720 -24.152913 -0.294981 0.772804 -33.021693 6.727660 -3.905466 9.423516 -3.484688 -0.654543 -3.594767 2.926101 0.455570 -0.107980 0.145430 0.248490 2.131131 8.149734 6.808425 13.564892 7.104508 -7.664930 -116.621979 38.835730 -65.777700 2.021265 -1.669424 0.067920 0.170670 -0.133740 -0.078320 
-0.280380 16.741680 -3.152530 0.495174 -9.345401 -5.859180 -14.948616 13.143232 3.430468 32.566464 0.752555 -6.563766 -0.047939 5.794143 4.639237 0.153980 5.542601 2.657774 0.525640 0.368660 0.268080 18.483074 -10.086696 2.574949 -9.449556 6.221367 -19.654792 10.235351 -13.405617 45.450871 -1.162445 -7.480471 1.852155 0.082630 -0.015880 0.139410 -4.169311 -2.437293 -7.791399 34.954682 -18.351394 26.048221 -20.239913 -9.927901 4.417226 10.901491 -13.408773 -10.653919 -29.507762 14.250469 35.713923 -11.150380 5.288110 -14.478990 -24.935198 -1.673091 1.384577 -33.999387 7.234347 -3.516719 9.014781 -0.960319 -0.395814 -3.606031 2.905005 0.466770 -0.118520 0.143470 0.235100 2.339689 10.381577 6.906201 12.763722 8.644073 -8.577453 -116.645321 32.748796 -58.257559 2.020173 -1.766475 0.059240 0.178030 -0.121330 -0.086530 
-0.259830 16.748570 -3.152240 0.338026 -7.848696 -5.858091 -15.041566 13.330376 3.531463 32.653006 0.766071 -7.095506 -1.115908 6.089595 5.359572 0.152763 5.672663 2.601087 0.495600 0.319940 0.249150 18.390426 -9.934667 2.500868 -9.353203 5.799212 -19.030447 10.549481 -13.363118 44.479165 -1.116995 -7.346918 1.897825 0.060830 -0.002420 0.140980 -3.920127 -3.077023 -7.850007 34.667363 -18.307806 25.820831 -18.347275 -9.988213 3.818993 11.178997 -13.395286 -11.161714 -29.628911 13.551357 36.317000 -11.464590 4.788610 -13.462550 -25.661146 -2.642695 1.691281 -34.720232 7.557351 -3.271883 7.953549 0.641006 -0.279598 -3.631545 2.896919 0.466980 -0.109440 0.122240 0.222560 2.595367 12.130891 7.207640 13.055139 9.797870 -8.981680 -119.179892 26.488897 -52.536178 2.016432 -1.883129 0.046770 0.172950 -0.095500 -0.092530 
-0.239680 16.755800 -3.156630 0.112024 -6.809505 -5.241190 -15.139012 13.499349 3.641170 32.540442 0.805690 -7.926913 -2.684482 6.463390 6.228110 0.161378 5.789432 2.547079 0.472840 0.292310 0.241610 18.296424 -9.740933 2.494526 -8.966471 5.802459 -19.017105 10.891478 -13.149202 43.456096 -1.069683 -7.165812 1.960632 0.043350 0.000630 0.146010 -3.665263 -3.700527 -7.952793 34.400541 -17.712219 25.772271 -16.488389 -9.415093 2.590931 11.640307 -13.160089 -11.322708 -28.715065 12.482265 36.717302 -12.745550 4.893720 -12.986010 -26.392899 -2.720103 1.356783 -35.204420 7.441476 -3.186680 7.199183 1.542938 -0.227180 -3.660349 2.882812 0.460210 -0.098120 0.115260 0.215700 2.399320 13.016014 7.451085 14.163415 10.930894 -8.883636 -122.788192 20.194360 -46.579059 2.022261 -2.009414 0.043290 0.162300 -0.087080 -0.094940 
-0.210700 16.776200 -3.169140 0.023826 -5.837899 -4.524754 -15.193612 13.675620 3.651348 31.803273 0.818794 -9.275442 -4.319081 6.914934 8.125982 0.115291 5.854336 2.500826 0.436930 0.241380 0.218050 18.229436 -9.658883 2.521292 -8.791138 5.785581 -19.292330 11.083044 -12.843346 42.319902 -1.000937 -6.975103 2.023964 0.022350 0.015970 0.161090 -3.501811 -4.110591 -8.004830 34.291392 -17.058252 25.489423 -15.060903 -8.772341 1.761660 11.995052 -12.777624 -11.465118 -27.375578 11.129357 36.755884 -14.404620 5.055010 -12.208870 -26.990963 -3.084456 1.220270 -35.537699 7.412093 -3.295378 7.142960 1.034217 -0.303078 -3.693907 2.888883 0.456670 -0.069590 0.091370 0.205110 2.275832 13.926602 7.703216 15.189547 11.816948 -8.705503 -126.859165 14.461184 -40.637097 2.004082 -2.137503 0.027730 0.144060 -0.059070 -0.106520 
-0.171800 16.803750 -3.181570 -0.182747 -4.987506 -3.635416 -15.199202 13.820419 3.607817 30.760801 0.711378 -11.027702 -6.098781 7.607728 11.235540 0.122423 5.945721 2.471377 0.396360 0.186140 0.201590 18.200813 -9.705735 2.541332 -8.439601 5.532164 -19.474272 10.935461 -12.245744 40.630405 -0.899910 -6.643093 2.145318 -0.009020 0.057620 0.166170 -3.455305 -4.251681 -7.991243 34.902174 -16.469022 24.529401 -14.081691 -8.126091 1.227416 12.118693 -12.392698 -11.753559 -26.188089 9.561904 36.832905 -14.846100 4.679720 -10.052240 -26.824178 -3.505590 1.251360 -36.761796 7.152480 -3.694069 7.820287 -0.193234 -0.406162 -3.720649 2.896198 0.418730 -0.035690 0.063530 0.214580 1.847868 14.799139 8.188061 16.165179 11.828913 -8.568308 -130.767620 10.335369 -36.311071 2.018184 -2.250338 0.019650 0.140530 -0.059440 -0.092530 
